# xmcd CD database file
#
# Track frame offsets:
#	150
#	19088
#	37331
#	62131
#	83564
#	105720
#	126089
#	143751
#	171893
#	192339
#	213743
#
# Disc length: 3106 seconds
#
# Revision: 1
# Processed by: cddbd v1.5.1PL0 Copyright (c) Steve Scherf et al.
# Submitted via: CDex 1.51
#
DISCID=9f0c200b
DTITLE=Gillespi - Bell Vill
DYEAR=2005
DGENRE=Jazz
TTITLE0=Bell Vill
TTITLE1=Billy Goman
TTITLE2=Use Me
TTITLE3=Ojitos
TTITLE4=Pistones
TTITLE5=Candombanfield
TTITLE6=Early Morning
TTITLE7=Cambio (You´ve changed)
TTITLE8=Pequeñeces
TTITLE9=Come Together
TTITLE10=La Buena
EXTD=YEAR: 2005
EXTT0=
EXTT1=
EXTT2=
EXTT3=
EXTT4=
EXTT5=
EXTT6=
EXTT7=
EXTT8=
EXTT9=
EXTT10=
PLAYORDER=
